<svg width="22" height="21" viewBox="0 0 22 21" fill="none" xmlns="http://www.w3.org/2000/svg">
<path d="M21.1291 10.5639C21.129 8.545 20.5504 6.56842 19.4618 4.86815C18.3732 3.16788 16.8202 1.81513 14.9867 0.970059C13.1532 0.124984 11.1159 -0.177029 9.11608 0.099775C7.11625 0.376579 5.23761 1.22061 3.70257 2.53194C2.16753 3.84327 1.04037 5.56698 0.454546 7.49901C-0.131281 9.43104 -0.151247 11.4905 0.397011 13.4335C0.94527 15.3765 2.03879 17.1218 3.54812 18.4626C5.05745 19.8035 6.91937 20.6838 8.91346 20.9993V13.6171H6.23124V10.5625H8.91346V8.23543C8.91346 5.58694 10.4921 4.12457 12.9038 4.12457C13.6971 4.13536 14.4885 4.20419 15.2717 4.3305V6.93092H13.9371C13.71 6.90072 13.479 6.922 13.2613 6.99317C13.0436 7.06435 12.8446 7.18361 12.6792 7.3421C12.5138 7.5006 12.3862 7.69428 12.3059 7.90879C12.2255 8.1233 12.1944 8.35314 12.2149 8.58129V10.5639H15.1454L14.6769 13.6185H12.2156V21C14.7004 20.6062 16.9632 19.3389 18.5971 17.4259C20.231 15.5129 21.1288 13.0797 21.1291 10.5639Z" fill="#37537D"/>
</svg>
