<svg width="30" height="30" viewBox="0 0 30 30" fill="none" xmlns="http://www.w3.org/2000/svg">
<path d="M28.1244 14.1247H17.0412C16.5582 14.1247 16.1663 13.7327 16.1663 13.2497C16.1663 12.7667 16.5582 12.3748 17.0412 12.3748H28.1244C28.6074 12.3748 28.9994 12.7667 28.9994 13.2497C28.9994 13.7327 28.6074 14.1247 28.1244 14.1247Z" fill="#748AF9" stroke="#748AF9" stroke-width="0.3"/>
<path d="M23.7493 18.4996C23.5252 18.4996 23.3013 18.4144 23.1309 18.2431C22.7891 17.9011 22.7891 17.347 23.1309 17.0052L26.8875 13.2487L23.1309 9.492C22.7891 9.15021 22.7891 8.59608 23.1309 8.25429C23.4729 7.91229 24.027 7.91229 24.3688 8.25429L28.7437 12.6292C29.0855 12.971 29.0855 13.5251 28.7437 13.8669L24.3688 18.2418C24.1972 18.4144 23.9734 18.4996 23.7493 18.4996V18.4996Z" fill="#748AF9" stroke="#748AF9" stroke-width="0.3"/>
<path d="M10.3332 28.9994C10.0835 28.9994 9.84657 28.9643 9.60988 28.8908L2.58889 26.5517C1.63359 26.218 1 25.3279 1 24.3329V3.33335C1 2.04652 2.04652 1 3.33335 1C3.58286 1 3.81976 1.03503 4.05666 1.10852L11.0774 3.44764C12.0329 3.78131 12.6663 4.67145 12.6663 5.66649V26.666C12.6663 27.9528 11.62 28.9994 10.3332 28.9994ZM3.33335 2.74996C3.0125 2.74996 2.74996 3.0125 2.74996 3.33335V24.3329C2.74996 24.5813 2.9168 24.8122 3.15477 24.8951L10.1429 27.2238C10.1931 27.24 10.2584 27.2494 10.3332 27.2494C10.654 27.2494 10.9164 26.9869 10.9164 26.666V5.66649C10.9164 5.41805 10.7495 5.18713 10.5116 5.10424L3.52347 2.77559C3.47327 2.75936 3.4079 2.74996 3.33335 2.74996V2.74996Z" fill="#748AF9" stroke="#748AF9" stroke-width="0.3"/>
<path d="M18.7913 10.3332C18.3083 10.3332 17.9163 9.9412 17.9163 9.45821V4.20833C17.9163 3.40449 17.262 2.74996 16.4582 2.74996H3.33348C2.85049 2.74996 2.4585 2.35797 2.4585 1.87498C2.4585 1.39199 2.85049 1 3.33348 1H16.4582C18.228 1 19.6663 2.4385 19.6663 4.20833V9.45821C19.6663 9.9412 19.2743 10.3332 18.7913 10.3332Z" fill="#748AF9" stroke="#748AF9" stroke-width="0.3"/>
<path d="M16.4579 25.4994H11.7912C11.3082 25.4994 10.9163 25.1074 10.9163 24.6244C10.9163 24.1414 11.3082 23.7495 11.7912 23.7495H16.4579C17.2618 23.7495 17.9161 23.0949 17.9161 22.2911V17.0412C17.9161 16.5582 18.3081 16.1662 18.7911 16.1662C19.2741 16.1662 19.6661 16.5582 19.6661 17.0412V22.2911C19.6661 24.0609 18.2278 25.4994 16.4579 25.4994V25.4994Z" fill="#748AF9" stroke="#748AF9" stroke-width="0.3"/>
</svg>
