<svg width="12" height="14" viewBox="0 0 12 14" fill="none" xmlns="http://www.w3.org/2000/svg">
<path d="M7.28571 6.96137H10.9286C10.9307 6.96137 10.9318 6.96151 10.9346 6.96274C10.9382 6.96438 10.9465 6.96908 10.9569 6.98008C10.9779 7.00246 11 7.04374 11 7.10345C11 7.16317 10.9779 7.20445 10.9569 7.22683C10.9465 7.23783 10.9382 7.24253 10.9346 7.24417C10.9318 7.24539 10.9307 7.24554 10.9286 7.24554H7.28571C6.55589 7.24554 6.07143 7.85666 6.07143 8.47396V12.3571C6.07143 12.4168 6.04929 12.4581 6.02829 12.4804C6.01797 12.4914 6.00963 12.4961 6.00599 12.4978C6.00327 12.499 6.00215 12.4991 6 12.4991C5.99905 12.4991 5.99831 12.4991 5.99753 12.499C5.99655 12.4988 5.99553 12.4985 5.99401 12.4978C5.99038 12.4961 5.98203 12.4914 5.97171 12.4804C5.95071 12.4581 5.92857 12.4168 5.92857 12.3571V8.47396C5.92857 7.85665 5.44411 7.24554 4.71429 7.24554H1.07143C1.06928 7.24554 1.06816 7.24539 1.06544 7.24417C1.0618 7.24253 1.05346 7.23783 1.04314 7.22683C1.02214 7.20445 1 7.16317 1 7.10345C1 7.04374 1.02214 7.00246 1.04314 6.98008C1.05346 6.96908 1.0618 6.96438 1.06544 6.96274C1.06816 6.96151 1.06928 6.96137 1.07143 6.96137H4.71429C5.44411 6.96137 5.92857 6.35026 5.92857 5.73295V1.84985C5.92857 1.79014 5.95071 1.74886 5.97171 1.72648C5.98203 1.71547 5.99038 1.71078 5.99401 1.70914C5.99673 1.70791 5.99785 1.70776 6 1.70776C6.00215 1.70776 6.00327 1.70791 6.00599 1.70914C6.00963 1.71078 6.01797 1.71547 6.02829 1.72648C6.04929 1.74886 6.07143 1.79014 6.07143 1.84985V5.73295C6.07143 6.35026 6.55589 6.96137 7.28571 6.96137Z" fill="#56A5FF" stroke="#56A5FF" stroke-width="2"/>
</svg>
