<svg width="50" height="32" viewBox="0 0 50 32" fill="none" xmlns="http://www.w3.org/2000/svg">
<path d="M36.9319 22.6153C36.1364 25.3291 34.4319 27.4775 33.1819 28.6083C32.5 29.2867 32.3864 30.4175 33.0682 31.209L33.2955 31.4351C33.8637 32.0005 34.7728 32.2267 35.4546 31.8874C50.341 24.0853 50.1137 13.6825 50.0001 11.9864C50.0001 11.7602 50.0001 11.6471 50.0001 11.421C50.0001 5.20192 44.8864 0.113577 38.6364 0.113577C32.3864 0.113577 27.2728 5.20192 27.2728 11.421C27.1591 17.0747 31.4773 21.8238 36.9319 22.6153Z" fill="#5D5FEF"/>
<path d="M9.77259 22.615C9.09077 25.3287 7.38623 27.3641 6.13623 28.6079C5.45441 29.2863 5.34078 30.4171 6.02259 31.2086L6.24987 31.4348C6.81805 32.0001 7.72714 32.2263 8.40896 31.774C23.1817 24.0849 22.9544 13.6821 22.8408 11.986C22.8408 11.7598 22.8408 11.6468 22.8408 11.4206C22.8408 5.20154 17.7271 0.113199 11.4771 0.113199C5.22714 0.113199 0.113503 5.20154 0.113503 11.4206C-0.000133514 17.0743 4.31805 21.8234 9.77259 22.615Z" fill="#5D5FEF"/>
</svg>
